<svg xmlns="http://www.w3.org/2000/svg" width="800" height="600"><path d="M227.239 206.955c-7.096 0-12.792 5.724-12.792 12.821v151.879c0 7.096 5.695 12.821 12.792 12.821h273.66c7.096 0 12.792-5.724 12.792-12.821v-151.879c0-7.096-5.695-12.821-12.792-12.821zm4.63 4.428h264.399c6.742 0 12.155 5.442 12.155 12.184v144.297c0 6.742-5.413 12.155-12.155 12.155h-264.399c-6.742 0-12.155-5.413-12.155-12.155v-144.297c0-6.742 5.413-12.184 12.155-12.184zm67.822 91.315c0 1.148.482 1.741 1.334 1.741.407 0 1-.296 1.852-.852 2.037.519 3.853.815 5.482.815 4.519 0 7.075-2.26 7.075-5.371 0-3.556-2.482-4.964-7.261-5.075-3.556-.074-5.631-.259-5.631-2.186 0-1.445 1.371-2.667 3.778-2.667 1.889 0 3.223.445 4.593 1.667 1.074.963 1.445 1.889 2.26 1.889.889 0 1.222-.63 1.222-1.815v-2.111c0-1.222-.407-1.815-1.222-1.815-.963 0-1.334.704-1.852.704-.519 0-1.963-.815-4.593-.815-4.482 0-6.964 2.074-6.964 5.075 0 3.223 2.63 5.001 7.557 5.001h1.037c2.741 0 4.075.519 4.075 2.371 0 1.63-1.63 2.815-4.26 2.815-2.445 0-4.519-.889-5.482-2.149-.704-.926-.593-1.926-1.704-1.926-.963 0-1.297.519-1.297 1.482v3.223m24.174-8.632c.704-3.001 3.038-4.779 6.223-4.779 2.926 0 5.223 1.889 5.557 4.779h-11.78m-.074 2.371h12.15c2.223 0 3.001 0 3.001-1.704 0-4.038-3.371-7.927-8.853-7.927-5.594 0-9.446 3.593-9.446 8.779 0 5.408 3.482 8.853 9.076 8.853 2.445 0 5.075-.593 7.557-1.815 1.074-.519 1.593-1.074 1.593-1.815 0-.667-.556-1.185-1.259-1.185-1.63 0-3.964 2.26-7.631 2.26-3.741 0-6.001-1.963-6.186-5.445m26.616 5v-7.483c2.408-2.741 4.445-4.186 6.446-4.186 1.408 0 2.186 1.111 3.149 1.111.778 0 1.593-.815 1.593-1.704 0-1.334-1.334-2.334-3.593-2.334-2.889 0-5.334 1.408-7.594 4.26v-3.075c0-.519-.333-.741-1-.741h-4.112c-.963 0-1.445.407-1.445 1.259 0 .926.519 1.297 1.704 1.297h2.148v11.595h-3.186c-1 0-1.519.407-1.519 1.259 0 .852.519 1.297 1.482 1.297h11.817c1.074 0 1.482-.259 1.482-1.297 0-.889-.445-1.259-1.371-1.259h-6.001m15.765-11.594l5.927 13.188c.482 1.111.889 1.593 2.111 1.593 1.297 0 1.667-.445 2.186-1.593l5.964-13.188h.333c1.445 0 2.074-.259 2.074-1.297 0-.852-.482-1.259-1.445-1.259h-5.594c-1.185 0-1.704.185-1.704 1.259 0 1.074.667 1.334 2.371 1.334l1.074-.037-5.223 11.706-4.705-11.706h.667c1.482 0 2.111-.259 2.111-1.297 0-1.074-.519-1.259-1.704-1.259h-5.075c-.963 0-1.445.407-1.445 1.259 0 1.037.593 1.297 2.074 1.297m24.546 4.223c.704-3.001 3.038-4.779 6.223-4.779 2.926 0 5.223 1.889 5.557 4.779h-11.78m-.074 2.371h12.15c2.223 0 3.001 0 3.001-1.704 0-4.038-3.371-7.927-8.853-7.927-5.594 0-9.446 3.593-9.446 8.779 0 5.408 3.482 8.853 9.076 8.853 2.445 0 5.075-.593 7.557-1.815 1.074-.519 1.593-1.074 1.593-1.815 0-.667-.556-1.185-1.259-1.185-1.63 0-3.964 2.26-7.631 2.26-3.741 0-6.001-1.963-6.186-5.445m26.616 5v-7.483c2.408-2.741 4.445-4.186 6.446-4.186 1.408 0 2.186 1.111 3.149 1.111.778 0 1.593-.815 1.593-1.704 0-1.334-1.334-2.334-3.593-2.334-2.889 0-5.334 1.408-7.594 4.26v-3.075c0-.519-.333-.741-1-.741h-4.112c-.963 0-1.445.407-1.445 1.259 0 .926.519 1.297 1.704 1.297h2.148v11.595h-3.186c-1 0-1.519.407-1.519 1.259 0 .852.519 1.297 1.482 1.297h11.817c1.074 0 1.482-.259 1.482-1.297 0-.889-.445-1.259-1.371-1.259h-6.001m-234.754 166.337v-8.816c0-.519-.333-.741-1.037-.741h-2.741c-.963 0-1.445.445-1.445 1.297 0 .926.519 1.259 1.667 1.259l.815.037v18.522h-.37c-1.482 0-2.111.222-2.111 1.259 0 .852.482 1.297 1.445 1.297h3.297c.556 0 .741-.296.741-.926v-1.445c1.222 1.815 3.112 2.704 5.631 2.704 4.853 0 8.557-3.816 8.557-8.52 0-4.779-3.63-8.52-8.483-8.52-2.556 0-4.593.889-5.964 2.593m5.631 11.595c-3.371 0-5.705-2.445-5.705-5.779 0-3.371 2.371-5.779 5.705-5.779 3.371 0 5.705 2.482 5.705 5.779 0 3.445-2.334 5.779-5.705 5.779m22.985-.038v-13.41c0-.445-.333-.741-1.037-.741h-5.297c-.963 0-1.445.407-1.445 1.259 0 .852.519 1.297 1.519 1.297h3.519v11.595h-5.52c-1 0-1.519.407-1.519 1.259 0 .852.482 1.297 1.445 1.297h14.04c1.074 0 1.482-.259 1.482-1.297 0-.889-.445-1.259-1.371-1.259h-5.816m-3.371-19.374c0 1.482.37 1.778 1.889 1.778 1.741 0 1.852-.407 1.852-2.297 0-1.889-.185-2.445-1.852-2.445s-1.889.556-1.889 2.963m17.247 19.375h-.37c-1.482 0-2.111.222-2.111 1.259 0 .852.482 1.297 1.519 1.297h4.26c1.371 0 1.926-.074 1.926-1.297 0-1-.482-1.297-1.741-1.297l-.778.037v-7.52c0-2.704 2.519-4.334 4.705-4.334 2.371 0 3.704 1.445 3.704 4.334v7.52h-.593c-1.297 0-1.815.259-1.815 1.259 0 1.185.519 1.297 1.815 1.297h4.001c1.297 0 1.926-.259 1.926-1.297 0-.926-.556-1.259-1.704-1.259h-.815v-8.187c0-4.186-2.445-6.446-5.89-6.446-1.889 0-3.556.815-5.297 2.445v-1.222c0-.445-.333-.741-1.037-.741h-1.704c-1.667 0-2.482 0-2.482 1.259 0 .926.519 1.297 1.667 1.297h.815v11.595m33.136.26l.185 1.111c.148.778.593 1.185 1.259 1.185h2.852c.963 0 1.445-.445 1.445-1.297 0-1.074-.63-1.259-2.149-1.259h-.926v-8.187c0-4.371-2.149-6.409-6.779-6.409-4.075 0-6.742 1.297-6.742 2.556 0 .926.556 1.519 1.222 1.519 1.408 0 2.889-1.519 5.445-1.519 2.778 0 4.075 1.297 4.075 4.075v.111c-1.482-.37-2.889-.556-4.297-.556-5.371 0-8.372 2.26-8.372 6.001 0 3.186 2.371 5.408 6.001 5.408 2.482 0 4.816-.963 6.779-2.741m-.111-5.705v1.963c0 1.63-2.963 3.704-6.223 3.704-2.111 0-3.556-1.222-3.556-2.815 0-2.037 2.111-3.482 5.964-3.482 1.334 0 2.593.222 3.816.63m16.507 5.448v-7.483c2.408-2.741 4.445-4.186 6.446-4.186 1.408 0 2.186 1.111 3.149 1.111.778 0 1.593-.815 1.593-1.704 0-1.334-1.334-2.334-3.593-2.334-2.889 0-5.334 1.408-7.594 4.26v-3.075c0-.519-.333-.741-1-.741h-4.112c-.963 0-1.445.407-1.445 1.259 0 .926.519 1.297 1.704 1.297h2.148v11.595h-3.186c-1 0-1.519.407-1.519 1.259 0 .852.519 1.297 1.482 1.297h11.817c1.074 0 1.482-.259 1.482-1.297 0-.889-.445-1.259-1.371-1.259h-6.001m22.691 7.188l9.52-18.781c1.259-.037 1.815-.333 1.815-1.297 0-.852-.482-1.259-1.445-1.259h-4.482c-1.185 0-1.704.185-1.704 1.259 0 1.037.63 1.297 2.186 1.297h.704l-5.038 9.965-4.853-9.965h.667c1.482 0 2.111-.259 2.111-1.297 0-1.074-.519-1.259-1.704-1.259h-5.038c-.963 0-1.445.407-1.445 1.259 0 1.037.593 1.297 2.074 1.297l6.631 13.002-2.963 5.779h-3.927c-.926 0-1.371.445-1.371 1.297 0 1 .445 1.297 1.519 1.297h8.298c.963 0 1.482-.445 1.482-1.297 0-1.074-.667-1.297-2.26-1.297h-.778m-199.333 32.487l2.408 8.224c.333 1.111.704 1.593 1.778 1.593.852 0 1.259-.333 1.519-1.222l4.075-13.558c1.148 0 1.556-.333 1.556-1.297 0-.852-.407-1.259-1.111-1.259h-4.853c-1.148 0-1.593.222-1.593 1.259 0 1.074.593 1.334 2.111 1.334.37 0 .778 0 1.259-.037l-3.038 10.854-2.26-7.52c-.333-1.111-.704-1.593-1.778-1.593-.852 0-1.259.37-1.519 1.222l-2.334 7.89-3.112-10.854c.445.037.815.037 1.185.037 1.593 0 2.223-.259 2.223-1.334 0-1.074-.482-1.259-1.63-1.259h-4.853c-.926 0-1.371.445-1.371 1.259 0 .963.445 1.297 1.593 1.297l4.149 13.188c.333 1.111.704 1.593 1.778 1.593.815 0 1.297-.37 1.519-1.222l2.297-8.594m16.396-.742c.704-3.001 3.038-4.779 6.223-4.779 2.926 0 5.223 1.889 5.557 4.779h-11.78m-.074 2.371h12.15c2.223 0 3.001 0 3.001-1.704 0-4.038-3.371-7.927-8.853-7.927-5.594 0-9.446 3.593-9.446 8.779 0 5.408 3.482 8.853 9.076 8.853 2.445 0 5.075-.593 7.557-1.815 1.074-.519 1.593-1.074 1.593-1.815 0-.667-.556-1.185-1.259-1.185-1.63 0-3.964 2.26-7.631 2.26-3.741 0-6.001-1.963-6.186-5.445m23.727-6.558v-8.816c0-.519-.333-.741-1.037-.741h-2.741c-.963 0-1.445.445-1.445 1.297 0 .926.519 1.259 1.667 1.259l.815.037v18.522h-.37c-1.482 0-2.111.222-2.111 1.259 0 .852.482 1.297 1.445 1.297h3.297c.556 0 .741-.296.741-.926v-1.445c1.222 1.815 3.112 2.704 5.631 2.704 4.853 0 8.557-3.816 8.557-8.52 0-4.779-3.63-8.52-8.483-8.52-2.556 0-4.593.889-5.964 2.593m5.631 11.595c-3.371 0-5.705-2.445-5.705-5.779 0-3.371 2.371-5.779 5.705-5.779 3.371 0 5.705 2.482 5.705 5.779 0 3.445-2.334 5.779-5.705 5.779m13.391 1.222c0 1.148.482 1.741 1.334 1.741.407 0 1-.296 1.852-.852 2.037.519 3.853.815 5.482.815 4.519 0 7.075-2.26 7.075-5.371 0-3.556-2.482-4.964-7.261-5.075-3.556-.074-5.631-.259-5.631-2.186 0-1.445 1.371-2.667 3.778-2.667 1.889 0 3.223.445 4.593 1.667 1.074.963 1.445 1.889 2.26 1.889.889 0 1.222-.63 1.222-1.815v-2.111c0-1.222-.407-1.815-1.222-1.815-.963 0-1.334.704-1.852.704-.519 0-1.963-.815-4.593-.815-4.482 0-6.964 2.074-6.964 5.075 0 3.223 2.63 5.001 7.557 5.001h1.037c2.741 0 4.075.519 4.075 2.371 0 1.63-1.63 2.815-4.26 2.815-2.445 0-4.519-.889-5.482-2.149-.704-.926-.593-1.926-1.704-1.926-.963 0-1.297.519-1.297 1.482v3.223m39.658-7.039c0-5.001-3.704-8.779-9.446-8.779-5.742 0-9.483 3.741-9.483 8.779s3.741 8.779 9.483 8.779c5.742 0 9.446-3.741 9.446-8.779m-9.446 6.26c-3.741 0-6.334-2.667-6.334-6.26s2.593-6.297 6.334-6.297c3.741 0 6.334 2.704 6.334 6.297 0 3.63-2.593 6.26-6.334 6.26m30.434-9.186v-3.371c0-1.556-.185-2.223-1.297-2.223-.926 0-1.408.333-1.408 1.148v.074c-2-1-3.816-1.519-5.705-1.519-5.186 0-9.113 3.816-9.113 8.816 0 5.001 3.89 8.779 9.15 8.779 4.371 0 8.446-2.704 8.446-4.408 0-.741-.519-1.259-1.259-1.259-.963 0-1.667.889-2.778 1.63-1.297.852-2.778 1.334-4.223 1.334-3.778 0-6.186-2.519-6.186-6.112 0-3.482 2.593-5.964 6.334-5.964 2.149 0 3.853 1 4.964 2.963.556 1 .926 1.445 1.704 1.445.889 0 1.371-.445 1.371-1.334m10.838 4.335l1.63-1.482 5.371 5.853c-.926.296-1.408.741-1.408 1.408 0 .815.482 1.148 1.519 1.148h4.89c.926 0 1.445-.445 1.445-1.297 0-.926-.407-1.297-1.445-1.297h-1.593l-6.816-7.409 2.63-2.297c1.297-1.111 2.519-1.741 3.408-1.852 1.408-.185 2.297-.074 2.297-1.334 0-.815-.482-1.222-1.408-1.222h-4.89c-1.037 0-1.556.37-1.556 1.074 0 .556.37.963 1.148 1.297l-5.223 4.371v-12.965c0-.445-.333-.741-1.037-.741h-3.445c-.963 0-1.445.445-1.445 1.297 0 1.185.778 1.297 2.445 1.297h.741v18.522h-.852c-1.593 0-2.297.148-2.297 1.259 0 .852.519 1.297 1.482 1.297h3.334c.593 0 1.074-.556 1.074-1.593v-5.334m19.543-3.001c.704-3.001 3.038-4.779 6.223-4.779 2.926 0 5.223 1.889 5.557 4.779h-11.78m-.074 2.371h12.15c2.223 0 3.001 0 3.001-1.704 0-4.038-3.371-7.927-8.853-7.927-5.594 0-9.446 3.593-9.446 8.779 0 5.408 3.482 8.853 9.076 8.853 2.445 0 5.075-.593 7.557-1.815 1.074-.519 1.593-1.074 1.593-1.815 0-.667-.556-1.185-1.259-1.185-1.63 0-3.964 2.26-7.631 2.26-3.741 0-6.001-1.963-6.186-5.445m33.321-8.151h-7.112v-3.667c0-1.778-.148-2.519-1.445-2.519-.963 0-1.408.519-1.408 1.519v4.667h-2c-1.741 0-2.482.111-2.482 1.297 0 .889.445 1.259 1.445 1.259h3.038v6.594c0 1.667.037 3.112.667 4.186 1.037 1.815 2.963 2.704 5.742 2.704 1.704 0 3.593-.482 5.853-1.371 1.334-.519 2-1.037 2-1.889 0-.667-.593-1.297-1.259-1.297-1.445 0-3.853 1.926-6.779 1.926-3.186 0-3.408-1.926-3.408-4.816v-6.038h7.335c1 0 1.519-.407 1.519-1.259 0-.926-.556-1.297-1.704-1.297m9.428 14.411c0 1.148.482 1.741 1.334 1.741.407 0 1-.296 1.852-.852 2.037.519 3.853.815 5.482.815 4.519 0 7.075-2.26 7.075-5.371 0-3.556-2.482-4.964-7.261-5.075-3.556-.074-5.631-.259-5.631-2.186 0-1.445 1.371-2.667 3.778-2.667 1.889 0 3.223.445 4.593 1.667 1.074.963 1.445 1.889 2.26 1.889.889 0 1.222-.63 1.222-1.815v-2.111c0-1.222-.407-1.815-1.222-1.815-.963 0-1.334.704-1.852.704-.519 0-1.963-.815-4.593-.815-4.482 0-6.964 2.074-6.964 5.075 0 3.223 2.63 5.001 7.557 5.001h1.037c2.741 0 4.075.519 4.075 2.371 0 1.63-1.63 2.815-4.26 2.815-2.445 0-4.519-.889-5.482-2.149-.704-.926-.593-1.926-1.704-1.926-.963 0-1.297.519-1.297 1.482v3.223m218.18-104.496c-1.038 0-2.044.123-3.01.347h-.752c-2.146 0-4.016 1.182-4.948 2.952-2.63 2.344-4.283 5.736-4.283 9.52v151.864c0 3.787 1.649 7.177 4.283 9.52l.029.029c.942 1.738 2.797 2.894 4.919 2.894h.666c.992.237 2.028.376 3.096.376h278.06c1.069 0 2.104-.139 3.096-.376h.695c2.146 0 4.016-1.182 4.948-2.952 2.621-2.343 4.283-5.715 4.283-9.492v-151.864c0-3.773-1.666-7.149-4.283-9.492-.929-1.782-2.793-2.981-4.948-2.981h-.781c-.966-.224-1.972-.347-3.01-.347h-278.06zm4.688 4.427h268.685c5.796 0 10.602 3.891 11.951 9.173v6.685h-60.885l-130.798-.695c-1.116-.095-3.802-.653-4.63-3.791-.828-3.138 1-6.153-3.936-9 0 0-31.953-.111-54.721-.116-3.252-.001-6.329-.005-9.086 0-7.352.013-12.522.045-13.224.116-2.811.281-4.555 5.831-4.485 8.016.07 2.185-2.743 5.435-3.675 5.44l-7.119-.029v-6.714c1.38-5.238 6.158-9.086 11.922-9.086zm-3.646 17.42c2.304 0 4.384.961 5.845 2.518h165.06v10.823h-164.944c-1.467 1.64-3.588 2.662-5.961 2.662-4.425 0-8.016-3.591-8.016-8.016s3.591-7.987 8.016-7.987zm181.293 2.373h39.789c3.037 0 5.469 2.461 5.469 5.498 0 3.037-2.432 5.469-5.469 5.469h-39.789c-3.037 0-5.469-2.432-5.469-5.469 0-3.037 2.432-5.498 5.469-5.498zm90.43 1.997h8.016v1.765h-8.016zm0 2.72h8.016v1.736h-8.016zm0 2.72h8.016v1.736h-8.016zm-279.999 7.755h292.558v124.46c-1.35 5.275-6.155 9.173-11.951 9.173h-268.685c-5.764 0-10.542-3.855-11.922-9.086zm14.674-9.562c0 3.54-2.87 6.409-6.409 6.409-3.54 0-6.409-2.87-6.409-6.409 0-3.54 2.87-6.409 6.409-6.409 3.54 0 6.409 2.87 6.409 6.409zm60.32 71.111v-8.816c0-.519-.333-.741-1.037-.741h-2.741c-.963 0-1.445.444-1.445 1.296 0 .926.519 1.259 1.667 1.259l.815.037v18.52h-.37c-1.482 0-2.111.222-2.111 1.259 0 .852.482 1.296 1.445 1.296h3.297c.556 0 .741-.296.741-.926v-1.445c1.222 1.815 3.111 2.704 5.63 2.704 4.852 0 8.556-3.815 8.556-8.519 0-4.778-3.63-8.519-8.482-8.519-2.556 0-4.593.889-5.963 2.593m5.63 11.594c-3.371 0-5.704-2.445-5.704-5.778 0-3.371 2.371-5.778 5.704-5.778 3.371 0 5.704 2.482 5.704 5.778 0 3.445-2.334 5.778-5.704 5.778m19.539-.035v-7.482c2.408-2.741 4.445-4.186 6.445-4.186 1.408 0 2.185 1.111 3.148 1.111.778 0 1.593-.815 1.593-1.704 0-1.333-1.333-2.334-3.593-2.334-2.889 0-5.334 1.408-7.593 4.26v-3.074c0-.519-.333-.741-1-.741h-4.111c-.963 0-1.445.407-1.445 1.259 0 .926.519 1.296 1.704 1.296h2.148v11.594h-3.185c-1 0-1.519.407-1.519 1.259 0 .852.519 1.296 1.482 1.296h11.816c1.074 0 1.482-.259 1.482-1.296 0-.889-.444-1.259-1.37-1.259h-6m33.503-5.778c0-5-3.704-8.778-9.445-8.778s-9.482 3.741-9.482 8.778c0 5.037 3.741 8.778 9.482 8.778s9.445-3.741 9.445-8.778m-9.445 6.26c-3.741 0-6.334-2.667-6.334-6.26s2.593-6.297 6.334-6.297c3.741 0 6.334 2.704 6.334 6.297 0 3.63-2.593 6.26-6.334 6.26m22.134-7.112l2.408 8.223c.333 1.111.704 1.593 1.778 1.593.852 0 1.259-.333 1.519-1.222l4.074-13.557c1.148 0 1.556-.333 1.556-1.296 0-.852-.407-1.259-1.111-1.259h-4.852c-1.148 0-1.593.222-1.593 1.259 0 1.074.593 1.333 2.111 1.333.37 0 .778 0 1.259-.037l-3.037 10.853-2.259-7.519c-.333-1.111-.704-1.593-1.778-1.593-.852 0-1.259.37-1.519 1.222l-2.334 7.89-3.111-10.853c.444.037.815.037 1.185.037 1.593 0 2.222-.259 2.222-1.333 0-1.074-.482-1.259-1.63-1.259h-4.852c-.926 0-1.37.444-1.37 1.259 0 .963.444 1.296 1.593 1.296l4.148 13.186c.333 1.111.704 1.593 1.778 1.593.815 0 1.296-.37 1.519-1.222l2.296-8.593m14.503 7.889c0 1.148.482 1.741 1.333 1.741.407 0 1-.296 1.852-.852 2.037.519 3.852.815 5.482.815 4.519 0 7.075-2.259 7.075-5.371 0-3.556-2.482-4.963-7.26-5.074-3.556-.074-5.63-.259-5.63-2.185 0-1.445 1.37-2.667 3.778-2.667 1.889 0 3.222.444 4.593 1.667 1.074.963 1.445 1.889 2.259 1.889.889 0 1.222-.63 1.222-1.815v-2.111c0-1.222-.407-1.815-1.222-1.815-.963 0-1.333.704-1.852.704-.519 0-1.963-.815-4.593-.815-4.482 0-6.964 2.074-6.964 5.074 0 3.222 2.63 5 7.556 5h1.037c2.741 0 4.074.519 4.074 2.371 0 1.63-1.63 2.815-4.26 2.815-2.445 0-4.519-.889-5.482-2.148-.704-.926-.593-1.926-1.704-1.926-.963 0-1.296.519-1.296 1.482v3.222m24.173-8.631c.704-3 3.037-4.778 6.223-4.778 2.926 0 5.223 1.889 5.556 4.778h-11.779m-.074 2.371h12.149c2.222 0 3 0 3-1.704 0-4.037-3.371-7.927-8.853-7.927-5.593 0-9.445 3.593-9.445 8.778 0 5.408 3.482 8.853 9.075 8.853 2.445 0 5.074-.593 7.556-1.815 1.074-.519 1.593-1.074 1.593-1.815 0-.667-.556-1.185-1.259-1.185-1.63 0-3.963 2.259-7.63 2.259-3.741 0-6-1.963-6.186-5.445m26.615 5.001v-7.482c2.408-2.741 4.445-4.186 6.445-4.186 1.408 0 2.185 1.111 3.148 1.111.778 0 1.593-.815 1.593-1.704 0-1.333-1.333-2.334-3.593-2.334-2.889 0-5.334 1.408-7.593 4.26v-3.074c0-.519-.333-.741-1-.741h-4.111c-.963 0-1.445.407-1.445 1.259 0 .926.519 1.296 1.704 1.296h2.148v11.594h-3.185c-1 0-1.519.407-1.519 1.259 0 .852.519 1.296 1.482 1.296h11.816c1.074 0 1.482-.259 1.482-1.296 0-.889-.444-1.259-1.37-1.259h-6" fill="#808080"/><path d="M366.75 855.406a2 2 0 0 0-1.844 1.969c-1.46 44.405 2.217 73.368 17.5 91.531 15.283 18.163 41.644 24.672 84 24.969a2 2 0 1 0 .031-4c-41.957-.294-66.845-6.746-80.969-23.531-14.124-16.785-18.014-44.724-16.563-88.844a2 2 0 0 0-2.156-2.094z" color="#000" fill="#808080" transform="translate(0 -452.362)"/><path d="M366.874 405.8l15.082 28.191-31.983-1.052 16.901-27.139zm98.802 113.714l-27.792 15.806.224-31.999 27.567 16.194z" fill="#fff" stroke="#808080" stroke-width="3.2pt"/><path d="M656.651 92.889l-11.48 6.628-11.48 6.628v-26.512l11.48 6.628zm4.997 14.848c-1.111 0-1.667-.556-1.667-1.667v-25.837c0-1.111.556-1.667 1.667-1.667h4.389c1.111 0 1.667.556 1.667 1.667v1.611h.111c.537-1.185 1.445-2.121 2.723-2.806 1.278-.685 2.473-1.028 3.584-1.028 2.223 0 3.945.519 5.167 1.556 1.241 1.037 2.093 2.195 2.556 3.473h.111c1.611-2.093 3.065-3.454 4.362-4.084 1.315-.63 2.991-.945 5.028-.945 2.741 0 5.047.908 6.918 2.723 1.889 1.815 2.834 5.13 2.834 9.946v15.391c0 1.111-.556 1.667-1.667 1.667h-4.445c-1.111 0-1.667-.556-1.667-1.667v-13.391c0-4.038-.278-6.584-.833-7.64-.537-1.056-1.5-1.584-2.889-1.584-1.297 0-2.482.759-3.556 2.278-1.074 1.519-1.611 4.649-1.611 9.39v10.946c0 1.111-.556 1.667-1.667 1.667h-4.445c-1.111 0-1.667-.556-1.667-1.667v-13.391c0-4.038-.278-6.584-.833-7.64-.537-1.056-1.5-1.584-2.889-1.584-1.296 0-2.482.759-3.556 2.278-1.074 1.5-1.611 4.63-1.611 9.39v10.946c0 1.111-.556 1.667-1.667 1.667h-4.445" fill="#808080"/><path d="M555.272 79.289l5.178 14.566 1.024 4.722h.228l.797-4.779 3.641-14.509h6.771l-8.762 28.733h-5.462l-5.747-15.931-.74-3.584h-.284l-.683 3.641-5.462 15.874h-5.633l-9.16-28.733h8.022l4.153 14.281.683 5.064h.284l.967-5.121 4.722-14.224h5.462zm42.767 26.002c-1.138.91-2.693 1.688-4.666 2.333-1.935.607-4.002.91-6.202.91-4.59 0-7.947-1.328-10.071-3.983-2.124-2.693-3.186-6.372-3.186-11.038 0-5.007 1.195-8.762 3.584-11.266 2.39-2.503 5.747-3.755 10.071-3.755 1.441 0 2.845.19 4.21.569 1.365.379 2.579 1.005 3.641 1.878 1.062.872 1.915 2.048 2.56 3.528.645 1.479.967 3.319.967 5.519 0 .797-.057 1.65-.171 2.56-.076.91-.209 1.859-.398 2.845h-17.069c.114 2.39.721 4.191 1.821 5.405 1.138 1.214 2.959 1.821 5.462 1.821 1.555 0 2.94-.228 4.153-.683 1.252-.493 2.2-.986 2.845-1.479l2.447 4.836zm-10.583-20.881c-1.934 0-3.376.588-4.324 1.764-.91 1.138-1.46 2.674-1.65 4.609h10.583c.152-2.048-.171-3.622-.967-4.722-.759-1.1-1.972-1.65-3.641-1.65zm16.873-16.5h7.397v13.655h.228c.797-.91 1.821-1.631 3.072-2.162 1.252-.531 2.636-.797 4.153-.797 3.414 0 6.012 1.176 7.795 3.528 1.821 2.314 2.731 5.86 2.731 10.64 0 5.121-1.271 9.009-3.812 11.664-2.503 2.655-5.955 3.983-10.355 3.983-2.428 0-4.647-.209-6.657-.626-2.01-.379-3.528-.816-4.552-1.309v-38.576zm12.688 16.955c-1.366 0-2.484.36-3.357 1.081-.834.683-1.479 1.688-1.934 3.016v12.403c.607.303 1.252.512 1.934.626.721.114 1.479.171 2.276.171 2.01 0 3.528-.721 4.552-2.162 1.062-1.479 1.593-3.812 1.593-6.998 0-5.424-1.688-8.136-5.064-8.136z" fill="#808080"/><path d="M232.063 540.688c-5.078.009-10.387.099-15.938.281a2.002 2.002 0 1 0 .156 4c44.12-1.451 72.058 2.47 88.844 16.594 16.785 14.124 23.237 38.98 23.531 80.938a2 2 0 1 0 4-.031c-.297-42.356-6.806-68.686-24.969-83.969-15.893-13.373-40.08-17.875-75.625-17.813z" color="#000" fill="#808080" transform="translate(0 -452.362)"/><path d="M330.651 189.388l-16.194-27.567 31.999-.224-15.806 27.792z" fill="#fff" stroke="#808080" stroke-width="3.2pt"/><path d="M496.063 540.688c-35.545-.062-59.732 4.44-75.625 17.813-18.163 15.283-24.672 41.613-24.969 83.969a2 2 0 1 0 4 .031c.294-41.957 6.777-66.814 23.563-80.938 16.785-14.124 44.724-18.045 88.844-16.594a2.001 2.001 0 1 0 .125-4c-5.551-.183-10.86-.272-15.938-.281z" color="#000" fill="#808080" transform="translate(0 -452.362)"/><path d="M397.487 189.388l-15.806-27.792 31.999.224-16.194 27.567z" fill="#fff" stroke="#808080" stroke-width="3.2pt"/><path d="M99.625 0c-55.021 0-99.625 44.605-99.625 99.625s44.604 99.594 99.625 99.594c55.018 0 99.625-44.574 99.625-99.594 0-55.02-44.607-99.625-99.625-99.625zm0 4.969c52.268 0 94.656 42.388 94.656 94.656 0 52.269-42.389 94.625-94.656 94.625-52.27 0-94.625-42.357-94.625-94.625 0-52.269 42.356-94.656 94.625-94.656zm0 59.438c-19.443 0-35.188 15.777-35.188 35.219 0 19.443 15.745 35.188 35.188 35.188 19.442 0 35.219-15.745 35.219-35.188 0-19.442-15.777-35.219-35.219-35.219zm0 4.594c16.906 0 30.625 13.719 30.625 30.625 0 16.907-13.719 30.594-30.625 30.594-16.907 0-30.625-13.687-30.625-30.594 0-16.906 13.718-30.625 30.625-30.625zm0 13.844c-9.253 0-16.75 7.529-16.75 16.781 0 9.253 7.496 16.75 16.75 16.75 9.253 0 16.75-7.496 16.75-16.75 0-9.252-7.496-16.781-16.75-16.781zm0 4.375c6.854 0 12.406 5.552 12.406 12.406 0 6.854-5.551 12.375-12.406 12.375-6.854 0-12.406-5.52-12.406-12.375 0-6.853 5.551-12.406 12.406-12.406zm-19.5 59.781c-.963 0-1.438.461-1.438 1.313 0 1.185.765 1.281 2.469 1.281h.969v6.938c-1.408-1.741-3.424-2.594-5.906-2.594-4.89 0-8.594 3.784-8.594 8.563 0 5.075 3.506 8.625 8.063 8.625 2.556 0 4.775-1.029 6.219-2.844v1.469c0 .63.132.938.688.938h3.469c.778 0 1.281-.497 1.281-1.313 0-.926-1.223-.187-1.656-1.25h-.813v-20.375c0-.519-.327-.75-1.031-.75h-3.719zm44.563 0c-.963 0-1.438.461-1.438 1.313 0 1.185 1.73 2.817 2.469 1.281h.969v6.938c-1.408-1.741-3.393-2.594-5.875-2.594-4.89 0-8.594 3.784-8.594 8.563 0 5.075 3.475 8.625 8.031 8.625 2.556 0 4.775-1.029 6.219-2.844v1.469c0 .63.163.938.719.938h3.438c.778 0 1.281-.497 1.281-1.313 0-.926-.508-1.25-1.656-1.25h-.813v-20.375c0-.519-.327-.75-1.031-.75h-3.719zm-34.188 6.969c-.963 0-1.438.398-1.438 1.25 0 1.037.613 1.313 2.094 1.313l5.906 13.188c.482 1.111.903 1.594 2.125 1.594 1.297 0 1.669-.446 2.188-1.594l5.969-13.188h.313c1.445 0 2.094-.275 2.094-1.313 0-.852-.506-1.25-1.469-1.25h-5.594c-1.185 0-1.688.176-1.688 1.25s.671 1.344 2.375 1.344l1.063-.031-5.219 11.688-4.719-11.688h.688c1.482 0 2.094-.275 2.094-1.313 0-1.074-.502-1.25-1.688-1.25h-5.094zm-14.031 2.625c3.371 0 5.688 2.447 5.688 5.781 0 3.334-2.416 5.844-5.75 5.844-3.223 0-5.656-2.248-5.656-5.656 0-3.593 2.311-5.969 5.719-5.969zm44.563 0c3.371 0 5.688 2.447 5.688 5.781 0 3.334-2.385 5.844-5.719 5.844-3.223 0-5.688-2.248-5.688-5.656 0-3.593 2.311-5.969 5.719-5.969z" fill="#808080"><animateTransform attributeName="transform" type="rotate" from="0, 100, 100" to="360, 100, 100" dur="3s" repeatDur="indefinite"/></path></svg>