<svg xmlns="http://www.w3.org/2000/svg" width="800" height="600"><path d="M99.594.188c-55.021 0-99.625 44.605-99.625 99.625s44.604 99.594 99.625 99.594c55.018 0 99.625-44.574 99.625-99.594 0-55.02-44.607-99.625-99.625-99.625zm0 4.969c52.268 0 94.656 42.388 94.656 94.656 0 52.269-42.389 94.625-94.656 94.625-52.27 0-94.625-42.357-94.625-94.625 0-52.269 42.356-94.656 94.625-94.656zm0 59.438c-19.443 0-35.188 15.777-35.188 35.219 0 19.443 15.745 35.188 35.188 35.188 19.442 0 35.219-15.745 35.219-35.188 0-19.442-15.777-35.219-35.219-35.219zm0 4.594c16.906 0 30.625 13.719 30.625 30.625 0 16.907-13.719 30.594-30.625 30.594-16.907 0-30.625-13.687-30.625-30.594 0-16.906 13.718-30.625 30.625-30.625zm0 13.844c-9.253 0-16.75 7.529-16.75 16.781 0 9.253 7.496 16.75 16.75 16.75 9.253 0 16.75-7.496 16.75-16.75 0-9.252-7.496-16.781-16.75-16.781zm0 4.375c6.854 0 12.406 5.552 12.406 12.406 0 6.854-5.551 12.375-12.406 12.375-6.854 0-12.406-5.52-12.406-12.375 0-6.853 5.551-12.406 12.406-12.406zm-19.5 59.781c-.963 0-1.438.461-1.438 1.313 0 1.185.765 1.281 2.469 1.281h.969v6.938c-1.408-1.741-3.424-2.594-5.906-2.594-4.89 0-8.594 3.784-8.594 8.563 0 5.075 3.506 8.625 8.063 8.625 2.556 0 4.775-1.029 6.219-2.844v1.469c0 .63.132.938.688.938h3.469c.778 0 1.281-.497 1.281-1.313 0-.926-1.223-.187-1.656-1.25h-.813v-20.375c0-.519-.327-.75-1.031-.75h-3.719zm44.563 0c-.963 0-1.438.461-1.438 1.313 0 1.185 1.73 2.817 2.469 1.281h.969v6.938c-1.408-1.741-3.393-2.594-5.875-2.594-4.89 0-8.594 3.784-8.594 8.563 0 5.075 3.475 8.625 8.031 8.625 2.556 0 4.775-1.029 6.219-2.844v1.469c0 .63.163.938.719.938h3.438c.778 0 1.281-.497 1.281-1.313 0-.926-.508-1.25-1.656-1.25h-.813v-20.375c0-.519-.327-.75-1.031-.75h-3.719zm-34.188 6.969c-.963 0-1.438.398-1.438 1.25 0 1.037.613 1.313 2.094 1.313l5.906 13.188c.482 1.111.903 1.594 2.125 1.594 1.297 0 1.669-.446 2.188-1.594l5.969-13.188h.313c1.445 0 2.094-.275 2.094-1.313 0-.852-.506-1.25-1.469-1.25h-5.594c-1.185 0-1.688.176-1.688 1.25s.671 1.344 2.375 1.344l1.063-.031-5.219 11.688-4.719-11.688h.688c1.482 0 2.094-.275 2.094-1.313 0-1.074-.502-1.25-1.688-1.25h-5.094zm-14.031 2.625c3.371 0 5.688 2.447 5.688 5.781 0 3.334-2.416 5.844-5.75 5.844-3.223 0-5.656-2.248-5.656-5.656 0-3.593 2.311-5.969 5.719-5.969zm44.563 0c3.371 0 5.688 2.447 5.688 5.781 0 3.334-2.385 5.844-5.719 5.844-3.223 0-5.688-2.248-5.688-5.656 0-3.593 2.311-5.969 5.719-5.969z" fill="#808080"><animateTransform attributeName="transform" type="rotate" from="0, 100, 100" to="360, 100, 100" dur="3s" repeatDur="indefinite"/></path><path d="M508.844 422.406c-1.038 0-2.034.12-3 .344h-.75c-2.146 0-4.037 1.168-4.969 2.938-2.63 2.344-4.281 5.747-4.281 9.531v151.875c0 3.787 1.647 7.157 4.281 9.5l.031.031c.942 1.738 2.815 2.906 4.938 2.906h.656c.992.237 2.026.375 3.094.375h278.063c1.069 0 2.102-.138 3.094-.375h.688c2.146 0 4.037-1.199 4.969-2.969 2.621-2.343 4.281-5.692 4.281-9.469v-151.875c0-3.773-1.664-7.157-4.281-9.5-.929-1.782-2.814-2.969-4.969-2.969h-.781c-.966-.224-1.962-.344-3-.344h-278.063zm4.688 4.406h268.688c5.796 0 10.588 3.906 11.938 9.188v6.688h-60.875l-130.781-.688c-1.116-.095-3.828-.675-4.656-3.813-.828-3.138.999-6.153-3.938-9 0 0-31.951-.089-54.719-.094-3.252-.001-6.306-.005-9.063 0-7.352.013-12.548.023-13.25.094-2.811.281-4.539 5.846-4.469 8.031.07 2.185-2.755 5.433-3.688 5.438l-7.094-.031v-6.719c1.38-5.238 6.142-9.094 11.906-9.094zm-3.656 17.438c2.304 0 4.383.974 5.844 2.531h165.063v10.813h-164.938c-1.467 1.64-3.596 2.656-5.969 2.656-4.425 0-8-3.575-8-8s3.575-8 8-8zm0 1.594c-3.539 0-6.406 2.866-6.406 6.406 0 3.539 2.866 6.406 6.406 6.406 3.539 0 6.406-2.866 6.406-6.406 0-3.539-2.866-6.406-6.406-6.406zm181.313.781h39.781c3.037 0 5.469 2.463 5.469 5.5s-2.432 5.469-5.469 5.469h-39.781c-3.037 0-5.469-2.432-5.469-5.469 0-3.037 2.432-5.5 5.469-5.5zm90.438 2h8v1.75h-8v-1.75zm0 2.719h8v1.719h-8v-1.719zm0 2.719h8v1.719h-8v-1.719zm-280 7.75h292.531v124.469c-1.35 5.275-6.141 9.156-11.938 9.156h-268.688c-5.764 0-10.526-3.832-11.906-9.063v-124.563zm71.188 52c-.963 0-1.438.429-1.438 1.281 0 .926.539 1.281 1.688 1.281l.813.031v18.5h-.375c-1.482 0-2.125.244-2.125 1.281 0 .852.475 1.281 1.438 1.281h3.313c.556 0 .75-.308.75-.938v-1.438c1.222 1.815 3.106 2.719 5.625 2.719 4.852 0 8.563-3.827 8.563-8.531 0-4.778-3.648-8.5-8.5-8.5-2.556 0-4.599.89-5.969 2.594v-8.844c0-.519-.327-.719-1.031-.719h-2.75zm96.688 6.469c-4.482 0-6.969 2.094-6.969 5.094 0 3.222 2.636 5 7.563 5h1.031c2.741 0 4.094.492 4.094 2.344 0 1.63-1.651 2.844-4.281 2.844-2.445 0-4.506-.897-5.469-2.156-.704-.926-.577-1.938-1.688-1.938-.963 0-1.313.537-1.313 1.5v3.219c0 1.148.493 1.719 1.344 1.719.407 0 .992-.288 1.844-.844 2.037.519 3.839.813 5.469.813 4.519 0 7.094-2.263 7.094-5.375 0-3.556-2.472-4.952-7.25-5.063-3.556-.074-5.656-.261-5.656-2.188 0-1.445 1.373-2.656 3.781-2.656 1.889 0 3.223.433 4.594 1.656 1.074.963 1.467 1.906 2.281 1.906.889 0 1.219-.659 1.219-1.844v-2.094c0-1.222-.404-1.813-1.219-1.813-.963 0-1.356.688-1.875.688-.519 0-1.964-.813-4.594-.813zm23.375 0c-5.593 0-9.469 3.596-9.469 8.781 0 5.408 3.501 8.844 9.094 8.844 2.445 0 5.081-.591 7.563-1.813 1.074-.519 1.594-1.072 1.594-1.813 0-.667-.578-1.188-1.281-1.188-1.63 0-3.958 2.281-7.625 2.281-3.741 0-6.001-1.987-6.188-5.469h12.156c2.222 0 3 .016 3-1.688 0-4.037-3.362-7.938-8.844-7.938zm-83.5.031c-2.889 0-5.335 1.429-7.594 4.281v-3.094c0-.519-.333-.719-1-.719h-4.125c-.963 0-1.438.398-1.438 1.25 0 .926.534 1.281 1.719 1.281h2.125v11.594h-3.188c-1 0-1.5.429-1.5 1.281 0 .852.506 1.281 1.469 1.281h11.813c1.074 0 1.5-.244 1.5-1.281 0-.889-.449-1.281-1.375-1.281h-6v-7.469c2.408-2.741 4.438-4.188 6.438-4.188 1.408 0 2.193 1.125 3.156 1.125.778 0 1.594-.83 1.594-1.719 0-1.333-1.334-2.344-3.594-2.344zm111.406 0c-2.889 0-5.335 1.429-7.594 4.281v-3.094c0-.519-.333-.719-1-.719h-4.125c-.963 0-1.438.398-1.438 1.25 0 .926.534 1.281 1.719 1.281h2.125v11.594h-3.188c-1 0-1.5.429-1.5 1.281 0 .852.506 1.281 1.469 1.281h11.813c1.074 0 1.5-.244 1.5-1.281 0-.889-.449-1.281-1.375-1.281h-6v-7.469c2.408-2.741 4.438-4.188 6.438-4.188 1.408 0 2.193 1.125 3.156 1.125.778 0 1.594-.83 1.594-1.719 0-1.333-1.334-2.344-3.594-2.344zm-94.938.063c-5.741 0-9.5 3.713-9.5 8.75s3.759 8.781 9.5 8.781 9.438-3.744 9.438-8.781c0-5-3.697-8.75-9.438-8.75zm12.156.406c-.926 0-1.375.435-1.375 1.25 0 .963.445 1.281 1.594 1.281l4.156 13.188c.333 1.111.707 1.594 1.781 1.594.815 0 1.308-.367 1.531-1.219l2.281-8.594 2.406 8.219c.333 1.111.707 1.594 1.781 1.594.852 0 1.271-.33 1.531-1.219l4.063-13.563c1.148 0 1.563-.318 1.563-1.281 0-.852-.421-1.25-1.125-1.25h-4.844c-1.148 0-1.594.213-1.594 1.25 0 1.074.607 1.344 2.125 1.344.37 0 .769-.025 1.25-.063l-3.031 10.875-2.281-7.531c-.333-1.111-.707-1.594-1.781-1.594-.852 0-1.24.367-1.5 1.219l-2.344 7.906-3.094-10.875c.444.037.817.063 1.188.063 1.593 0 2.219-.27 2.219-1.344s-.508-1.25-1.656-1.25h-4.844zm54.875 2c2.926 0 5.23 1.892 5.563 4.781h-11.781c.704-3 3.033-4.781 6.219-4.781zm-67.031.063c3.741 0 6.313 2.688 6.313 6.281 0 3.63-2.572 6.281-6.313 6.281-3.741 0-6.344-2.688-6.344-6.281 0-3.593 2.603-6.281 6.344-6.281zm-43.594.563c3.371 0 5.688 2.485 5.688 5.781 0 3.445-2.317 5.781-5.688 5.781-3.371 0-5.719-2.448-5.719-5.781 0-3.371 2.386-5.781 5.719-5.781z" fill="#808080"/><path d="M234.5 88.313c-5.773.009-11.815.099-18.125.281-1.191.041-2.203 1.047-2.156 2.094.046 1.047 1.153 1.947 2.344 1.906 50.16-1.451 81.917 2.47 101 16.594s26.416 152.98 26.75 194.938v.219c-1.751 44.96 2.646 173.485 20.969 191.875 18.322 18.39 22.35 25.098 73.13 25.398l.032-4.031c-50.302-.298-52.541-6.965-69.474-23.961-16.933-16.995-21.826-144.613-20.086-189.285l-.022-.21c-.391-42.947-7.792-182.782-28.361-198.005-18.068-13.373-45.589-17.875-86-17.813z" color="#000" fill="#808080"/><path d="M436.125 499.844l-.031 3.469-.219 32v3.469l3-1.719 30.486-17.702-30.236-17.766-3-1.75zm3.938 6.938l21.625 12.719-21.781 12.375z" color="#000" fill="#808080"/></svg>