<svg xmlns="http://www.w3.org/2000/svg" width="100" height="100"><path d="M43.248.403c-11.27 1.406-20.77 6.197-28.787 14.477-16.632 17.263-19.183 42.727-6.273 62.437 10.333 15.752 28.501 24.423 46.981 22.392 15.357-1.666 29.724-10.623 37.689-23.459 7.444-12.029 9.24-28.484 4.581-42.518-1.223-3.723-4.269-9.764-6.481-12.888-3.254-4.556-8.537-9.608-13.483-12.888-9.422-6.275-22.072-9.061-34.227-7.551zm15.383 9.477c5.362 1.146 9.37 2.838 13.899 5.858 9.11 6.093 15.278 15.154 17.595 25.933.521 2.343.599 3.515.625 8.202 0 6.171-.364 8.774-1.822 13.305-4.217 12.94-15.825 23.199-30.062 26.584-4.086.963-11.114 1.146-15.591.365-12.832-2.187-24.076-10.623-29.958-22.548-2.915-5.858-4.164-11.196-4.164-17.575 0-11.118 4.243-20.96 12.598-29.292 5.882-5.858 12.415-9.399 19.859-10.779 4.164-.781 3.982-.781 9.448-.677 3.878.078 5.674.234 7.574.625zm-11.869 11.482c-1.796.286-4.477 1.12-5.856 1.823-2.889 1.484-5.804 4.452-7.626 7.811-5.258 9.66-5.258 28.354 0 38.014 3.566 6.561 9.032 9.738 16.736 9.738 7.704 0 13.17-3.177 16.736-9.738 4.477-8.228 5.258-23.381 1.744-33.874-2.421-7.238-6.95-11.769-13.326-13.357-2.16-.547-6.299-.729-8.407-.417zm5.284 11.274c.703.573 1.119 1.771.937 2.604-.156.703-10.776 20.543-11.296 21.09-.338.365-.599-5.129-.442-8.931.416-9.191 2.525-13.8 6.897-14.997 1.301-.365 3.332-.234 3.904.234zm6.715 15.414c.416 10.805-1.562 17.289-5.856 19.215-3.514 1.588-8.329-.286-7.652-2.968.078-.338 3.045-5.598 6.559-11.691l6.403-11.04.182 1.015c.104.573.26 3.02.364 5.468z"/></svg>