<svg xmlns="http://www.w3.org/2000/svg" width="200" height="200"><path d="M100 0c-55.228 0-100 44.78-100 100.016 0 55.236 44.772 99.984 100 99.984 55.225 0 100-44.749 100-99.984 0-55.236-44.775-100.016-100-100.016zm0 4.988c52.465 0 95.012 42.554 95.012 95.027 0 52.474-42.549 94.996-95.012 94.996-52.467 0-94.981-42.523-94.981-94.996 0-52.474 42.515-95.027 94.981-95.027zm0 59.671c-19.516 0-35.32 15.839-35.32 35.357 0 19.519 15.804 35.326 35.32 35.326 19.515 0 35.352-15.807 35.352-35.326 0-19.518-15.836-35.357-35.352-35.357zm0 4.612c16.97 0 30.74 13.773 30.74 30.745 0 16.973-13.771 30.714-30.74 30.714-16.971 0-30.74-13.741-30.74-30.714 0-16.972 13.77-30.745 30.74-30.745zm0 13.898c-9.288 0-16.813 7.559-16.813 16.847 0 9.289 7.524 16.816 16.813 16.816 9.288 0 16.813-7.525 16.813-16.816 0-9.288-7.524-16.847-16.813-16.847zm0 4.392c6.88 0 12.453 5.574 12.453 12.455s-5.572 12.424-12.453 12.424c-6.88 0-12.453-5.542-12.453-12.424 0-6.88 5.572-12.455 12.453-12.455zm-53.916 56.019h-7.68v-3.96c0-1.92-.16-2.72-1.56-2.72-1.04 0-1.52.56-1.52 1.64v5.04h-2.16c-1.88 0-2.68.12-2.68 1.4 0 .96.48 1.36 1.56 1.36h3.28v7.12c0 1.8.04 3.36.72 4.52 1.12 1.96 3.2 2.92 6.2 2.92 1.84 0 3.88-.52 6.32-1.48 1.44-.56 2.16-1.12 2.16-2.04 0-.72-.64-1.4-1.36-1.4-1.56 0-4.16 2.08-7.32 2.08-3.44 0-3.68-2.08-3.68-5.2v-6.52h7.92c1.08 0 1.64-.44 1.64-1.36 0-1-.6-1.4-1.84-1.4m11.382 14.2h-.4c-1.6 0-2.28.24-2.28 1.36 0 .92.52 1.4 1.56 1.4h5.2c1.16 0 1.56-.28 1.56-1.4 0-1.08-.52-1.4-1.88-1.4l-.84.04v-8.12c0-2.92 2.72-4.68 5.08-4.68 2.56 0 4.12 1.56 4.12 4.68v8.12h-.76c-1.4 0-1.92.28-1.92 1.36 0 1.12.4 1.4 1.56 1.4h5.2c1.04 0 1.56-.48 1.56-1.4 0-1-.6-1.36-1.84-1.36h-.84v-8.84c0-4.52-2.68-6.96-6.4-6.96-2.04 0-3.84.88-5.72 2.64v-8.84c0-.48-.36-.8-1.12-.8h-2.96c-1.04 0-1.56.48-1.56 1.4 0 1 .56 1.36 1.8 1.36l.88.04v20m35.863.28l.2 1.2c.16.84.64 1.28 1.36 1.28h3.08c1.04 0 1.56-.48 1.56-1.4 0-1.16-.68-1.36-2.32-1.36h-1v-8.84c0-4.72-2.32-6.92-7.32-6.92-4.4 0-7.28 1.4-7.28 2.76 0 1 .6 1.64 1.32 1.64 1.52 0 3.12-1.64 5.88-1.64 3 0 4.4 1.4 4.4 4.4v.12c-1.6-.4-3.12-.6-4.64-.6-5.8 0-9.04 2.44-9.04 6.48 0 3.44 2.56 5.84 6.48 5.84 2.68 0 5.2-1.04 7.32-2.96m-.12-6.16v2.12c0 1.76-3.2 4-6.72 4-2.28 0-3.84-1.32-3.84-3.04 0-2.2 2.28-3.76 6.44-3.76 1.44 0 2.8.24 4.12.68m12.462 5.88h-.4c-1.6 0-2.28.24-2.28 1.36 0 .92.52 1.4 1.64 1.4h4.6c1.48 0 2.08-.08 2.08-1.4 0-1.08-.52-1.4-1.88-1.4l-.84.04v-8.12c0-2.92 2.72-4.68 5.08-4.68 2.56 0 4 1.56 4 4.68v8.12h-.64c-1.4 0-1.96.28-1.96 1.36 0 1.28.56 1.4 1.96 1.4h4.32c1.4 0 2.08-.28 2.08-1.4 0-1-.6-1.36-1.84-1.36h-.88v-8.84c0-4.52-2.64-6.96-6.36-6.96-2.04 0-3.84.88-5.72 2.64v-1.32c0-.48-.36-.8-1.12-.8h-1.84c-1.8 0-2.68 0-2.68 1.36 0 1 .56 1.4 1.8 1.4h.88v12.52m27.783-4.72l1.76-1.6 5.8 6.32c-1 .32-1.52.8-1.52 1.52 0 .88.52 1.24 1.64 1.24h5.28c1 0 1.56-.48 1.56-1.4 0-1-.44-1.4-1.56-1.4h-1.72l-7.36-8 2.84-2.48c1.4-1.2 2.72-1.88 3.68-2 1.52-.2 2.48-.08 2.48-1.44 0-.88-.52-1.32-1.52-1.32h-5.28c-1.12 0-1.68.4-1.68 1.16 0 .6.4 1.04 1.24 1.4l-5.64 4.72v-14c0-.48-.36-.8-1.12-.8h-3.72c-1.04 0-1.56.48-1.56 1.4 0 1.28.84 1.4 2.64 1.4h.8v20h-.92c-1.72 0-2.48.16-2.48 1.36 0 .92.56 1.4 1.6 1.4h3.6c.64 0 1.16-.6 1.16-1.72v-5.76m19.062 6.08c0 1.24.52 1.88 1.44 1.88.44 0 1.08-.32 2-.92 2.2.56 4.16.88 5.92.88 4.88 0 7.64-2.44 7.64-5.8 0-3.84-2.68-5.36-7.84-5.48-3.84-.08-6.08-.28-6.08-2.36 0-1.56 1.48-2.88 4.08-2.88 2.04 0 3.48.48 4.96 1.8 1.16 1.04 1.56 2.04 2.44 2.04.96 0 1.32-.68 1.32-1.96v-2.28c0-1.32-.44-1.96-1.32-1.96-1.04 0-1.44.76-2 .76s-2.12-.88-4.96-.88c-4.84 0-7.52 2.24-7.52 5.48 0 3.48 2.84 5.4 8.16 5.4h1.12c2.96 0 4.4.56 4.4 2.56 0 1.76-1.76 3.04-4.6 3.04-2.64 0-4.88-.96-5.92-2.32-.76-1-.64-2.08-1.84-2.08-1.04 0-1.4.56-1.4 1.6v3.48" fill="#808080"><animateTransform attributeName="transform" type="rotate" from="0, 100, 100" to="360, 100, 100" dur="3s" repeatDur="indefinite"/></path></svg>