<svg xmlns="http://www.w3.org/2000/svg" width="200" height="200"><path d="M95.423.08c-20.476 1.095-39.307 7.904-55.7 20.065-6.46 4.743-16.637 15.262-21.512 22.072-10.482 14.654-17.064 33.198-18.039 50.771-.426 7.114 0 20.065.61 20.734.182.182 3.351 0 6.947-.425 4.144-.425 10.542-.548 16.941-.365l10.239.365-.366-1.641c-.182-.913-.792-3.405-1.28-5.594-1.462-6.201-1.829-20.125-.731-25.233 1.401-6.506 3.291-10.944 6.886-16.234l3.291-4.743-.914-3.466c-1.706-6.566-.731-18.91 1.95-24.139.914-1.703.975-1.703 4.814-1.338 5.485.548 13.041 3.405 20.232 7.661 5.606 3.344 6.216 3.526 8.105 3.04 11.761-3.405 33.761-3.891 46.255-.973 3.291.73 3.412.73 5.972-1.034 3.779-2.493 14.565-7.54 17.795-8.269 1.524-.365 4.144-.669 5.85-.669 3.535 0 3.9.425 5.424 6.931.975 4.013 1.157 14.593.366 17.998-.426 2.006-.305 2.371 2.194 5.169 3.535 4.013 7.861 12.829 9.019 18.423 1.401 6.993 1.097 22.01-.67 31.436l-.305 1.885 15.235-.061h15.235l.366-2.006c.61-3.284.426-18.605-.305-23.957-5.911-43.171-39.977-78.071-82.819-85.003-7.13-1.155-15.479-1.703-21.086-1.399zm77.821 113.885c-2.742.244-5.119.547-5.302.669-.122.121-.366.973-.61 1.824l-.426 1.581 11.822.365c6.704.183 13.407.73 15.54 1.216l3.839.851.366-2.189c.182-1.216.487-2.615.61-3.161.244-.79-.426-1.034-3.474-1.399-4.631-.425-15.54-.365-22.365.244zm-163.748.669c-3.656.304-7.069.669-7.496.851-.67.244-.792 1.034-.426 3.223.244 1.581.487 2.919.549 2.979.061.061 3.107-.425 6.765-1.095 3.717-.608 10.665-1.276 15.54-1.459 4.875-.244 9.69-.486 10.786-.669 1.829-.244 1.889-.365 1.219-2.068-.67-1.824-.731-1.824-5.606-1.824-2.681 0-7.069-.121-9.75-.244-2.681-.182-7.861 0-11.579.304zm156.131 6.08c-.244.79-1.767 3.284-3.412 5.533-3.595 4.804-9.629 9.243-16.332 12.039-4.387 1.824-14.199 4.318-20.476 5.169l-2.925.365 2.499 2.736c5.18 5.594 6.034 10.154 6.094 31.313 0 17.085.061 17.208 4.631 15.505 1.645-.608 5.667-2.433 8.959-4.074 25.169-12.404 43.634-34.658 51.679-62.08.792-2.615 1.219-4.925.975-5.108-1.097-1.095-9.69-2.128-19.989-2.493l-11.335-.365-.366 1.459zm-146.136-.06c-2.56.244-7.374.913-10.786 1.52-7.13 1.276-6.765.182-3.656 9.729 4.997 15.2 15.296 30.949 27.424 41.893 9.934 8.938 23.219 16.843 35.102 20.855 6.947 2.31 6.825 2.554 6.825-11.431v-10.701l-2.56.486c-4.144.79-10.909.608-14.686-.365-8.044-2.068-11.945-5.533-16.027-13.985-3.169-6.628-5.85-10.033-10.36-13.255-5.424-3.83-5.057-6.201.854-6.141 5.667.061 11.091 3.588 15.357 9.971 2.437 3.648 5.667 6.749 8.836 8.391 2.56 1.338 3.839 1.581 7.922 1.581 3.291-.061 5.85-.426 7.861-1.216 3.169-1.216 3.169-1.216 5.424-6.324.792-1.824 2.437-4.318 3.656-5.533l2.194-2.25-4.754-.669c-17.856-2.615-31.567-9.911-38.21-20.369l-1.767-2.798-7.009.061c-3.839.061-9.08.304-11.64.548zm13.162 20.673c-.487.73 1.219 1.459 2.132.913.305-.182.61-.608.61-.973 0-.73-2.255-.73-2.742.061zm5.364 3.161c.122.425.731.79 1.341.79s1.219-.365 1.401-.79c.122-.425-.366-.73-1.401-.73-1.036 0-1.524.304-1.341.73zm3.046 3.649c.122.425.731.79 1.341.79s1.219-.365 1.401-.79c.122-.425-.366-.73-1.401-.73-1.036 0-1.524.304-1.341.73zm2.986 4.256c.305.913 2.255 1.095 2.499.183.061-.365-.549-.73-1.341-.79-.975-.182-1.341.061-1.157.608zm3.474 3.586c-.67.365-.67.669-.122 1.216.731.73 2.62.365 2.62-.608 0-.851-1.524-1.216-2.499-.608zm53.689 21.403c0 10.398-.244 19.822-.549 20.794l-.487 1.824 2.56-.182 2.62-.244-.549-1.885c-.305-1.095-.549-7.296-.549-13.803 0-6.506-.182-14.958-.426-18.728-.305-6.08-.487-6.81-1.524-6.81-1.036 0-1.097.913-1.097 19.032zm-49.545-18.058c-.67.669.182 1.459 1.462 1.459.731 0 1.157-.304 1.036-.79-.305-.851-1.889-1.276-2.499-.669zm18.587 1.276c-1.097.425-.244 1.399 1.157 1.399.731 0 1.157-.304 1.036-.73-.305-.851-1.097-1.095-2.194-.669zm17.246 1.399c-1.097 1.946-1.219 3.648-1.524 18.605-.244 12.708-.487 16.72-1.157 17.45-.731.913-.61 1.034 1.036 1.034 2.986 0 3.23-2.006 3.047-21.889l-.183-17.329-1.219 2.128zm29.13 16.843c.061 10.398.305 19.092.487 19.335.731.669 3.595-.365 3.107-1.155-.244-.365-.549-7.783-.731-16.478-.305-14.837-.426-15.992-1.706-18.24l-1.341-2.433.183 18.97zm-58.869-17.087c-.61.669.182 1.459 1.462 1.459.61 0 1.157-.425 1.157-.913 0-.913-1.889-1.276-2.62-.548zm6.094 0c-.61.669.182 1.459 1.462 1.459.61 0 1.157-.425 1.157-.913 0-.913-1.889-1.276-2.62-.548z"/></svg>