<svg xmlns="http://www.w3.org/2000/svg" version="1" width="120" height="30"><path d="M115.275 29.763c-.989-.549-1.616-1.078-2.065-1.74l-.261-.385-.378.334c-.529.468-.738.624-1.221.909-1.117.66-2.616.932-4.478.811-3.852-.249-5.876-2.096-6.14-5.604-.118-1.561.144-2.981.749-4.069.829-1.491 2.453-2.533 4.733-3.038 1.166-.258 2.112-.352 3.867-.385l1.628-.03-.033-.849c-.018-.467-.058-.998-.088-1.18-.161-.955-.564-1.439-1.317-1.582-.583-.111-.853-.117-1.524-.035-1.298.159-2.652.69-4.321 1.697-.448.27-.839.481-.87.469-.063-.024-2.242-3.676-2.239-3.753.004-.108 1.355-.852 2.317-1.276 2.604-1.149 4.235-1.538 6.44-1.538 2.051 0 3.468.345 4.612 1.124.448.305 1.124 1.003 1.369 1.414.226.378.503 1.066.654 1.624l.122.448-.026 3.082c-.015 1.695-.026 4.161-.026 5.479 0 2.703 0 2.704.409 3.504.177.347.323.527.819 1.016.554.546.597.601.523.685l-1.383 1.592c-.717.826-1.33 1.507-1.363 1.513-.033.007-.261-.1-.507-.237zm-6.129-4.07c.795-.1 1.453-.414 2.058-.981l.329-.308.035-2.05.035-2.05-.853.036c-2.688.115-3.692.545-4.127 1.766-.137.385-.19 1.398-.095 1.803.217.918.943 1.639 1.791 1.778l.344.054.482-.048zm-24.77 3.711c-.853-.133-1.591-.44-2.266-.943-.718-.536-1.14-1.167-1.449-2.167-.288-.933-.281-.664-.317-11.954-.033-10.249-.036-10.455-.152-11.768-.065-.735-.105-1.349-.088-1.366.048-.048 5.212-1.224 5.275-1.202.064.023.161.733.234 1.717.105 6.989.007 13.98.101 20.969.04 1.694.055 1.9.155 2.183.246.697.584.95 1.271.948.217-.001.429-.012.47-.025.069-.022.311.732.888 2.775l.106.375-.824.216c-1.197.314-2.392.399-3.403.242zm10.957.049c-.69-.082-1.283-.253-1.844-.533-1.401-.699-2.083-1.703-2.404-3.542-.042-.243-.07-3.361-.094-10.722-.034-10.341-.035-10.385-.161-11.895-.077-.926-.107-1.533-.077-1.559.065-.057 5.24-1.236 5.274-1.201.057.057.173 1.107.226 2.037.137 7.199-.024 14.402.105 21.601.036.763.069 1.042.154 1.283.143.405.34.656.612.776.296.131.765.182.981.107.112-.039.183-.042.205-.008.051.082.908 3.117.886 3.138-.011.011-.327.106-.703.211-.904.254-2.387.398-3.16.306zm-56.216-.047l-.685-.082c-.29-.034-.801-.139-1.136-.234-3.603-1.025-5.854-4-6.375-8.426-.08-.678-.08-2.58.001-3.293.234-2.079.906-3.96 1.939-5.427.701-.995 1.851-1.998 2.887-2.517 1.308-.656 2.446-.907 4.121-.907 1.391 0 2.288.142 3.336.528 2.544.938 4.598 3.238 5.341 5.978.596 2.198.585 5.593-.024 7.798-.482 1.741-1.31 3.146-2.566 4.351-1.256 1.205-2.644 1.888-4.336 2.133-.498.072-2.201.139-2.503.099zm2.002-4.084c1.175-.533 1.743-1.728 2.003-4.213.099-.949.114-3.307.026-4.213-.243-2.51-.864-3.719-2.172-4.226-.683-.265-1.621-.196-2.315.169-1.18.621-1.713 1.935-1.893 4.663-.102 1.556-.008 3.644.221 4.9.308 1.684.793 2.44 1.851 2.884.496.208.755.25 1.387.223.452-.019.584-.047.892-.187zm-39.118-13.406c-.084-.688-.243-1.314-.432-1.697-.095-.194-.145-.353-.117-.377.058-.051 4.543-1.271 4.671-1.271.132 0 .434.634.592 1.242.073.28.132.553.132.608l.04.098c.022-.001.253-.18.514-.398.983-.822 2.285-1.376 3.536-1.504 1.368-.14 2.601.064 3.592.596.634.341 1.389.977 1.791 1.511l.316.419.204-.212c.492-.511 1.46-1.242 2.14-1.615.581-.319 1.404-.578 2.208-.694.721-.104 2.143-.041 2.837.127.767.186 1.426.465 1.923.815 1.019.718 1.406 1.348 1.672 2.721.111.573.113.665.131 8.654l.019 8.074h-5.167v-7.075c0-4.548-.019-7.234-.054-7.521-.128-1.05-.371-1.356-1.164-1.467-.924-.129-2.225.371-3.408 1.31l-.431.342v14.41h-5.001c-.306-4.776.422-9.989-.121-14.706-.191-.926-.522-1.265-1.332-1.363-.946-.115-2.234.322-3.334 1.132l-.429.316-.003 14.62h-5.163c-.178-5.655.319-11.47-.157-17.097zm49.32 13.752l9.356-12.908-8.572-.027v-3.74h14.91v3.609c-2.914 4.229-5.907 8.404-8.799 12.648l9.175.023-.037.119-1.222 3.596-14.817.027zm19.54-16.41l.119-.027c1.675-.278 3.355-.523 5.032-.793l.171-.03v20.605h-5.321zm2.292-2.644c-1.271-.127-2.382-1.086-2.71-2.338-.455-1.738.458-3.468 2.118-4.012.314-.103.488-.124 1.03-.124 1.021 0 1.607.23 2.27.894.638.638.914 1.338.917 2.32.003 1.011-.262 1.671-.943 2.354-.705.707-1.61 1.012-2.682.905z" fill="#ab0007"/></svg>