<svg xmlns="http://www.w3.org/2000/svg" width="200" height="200"><path d="M200 38.013c-7.37 3.252-15.277 5.46-23.572 6.445 8.474-5.072 14.978-13.128 18.022-22.706-7.937 4.714-16.709 8.116-26.048 9.966-7.489-7.967-18.141-12.949-29.957-12.949-22.647 0-41.026 18.38-41.026 41.026 0 3.222.358 6.355 1.074 9.339-34.104-1.701-64.329-18.052-84.559-42.876-3.521 6.057-5.55 13.099-5.55 20.618 0 14.232 7.25 26.794 18.261 34.134-6.713-.209-13.039-2.059-18.589-5.132v.507c0 19.872 14.143 36.461 32.911 40.221-3.431.925-7.071 1.432-10.801 1.432-2.655 0-5.221-.269-7.728-.746 5.222 16.291 20.379 28.166 38.311 28.495-14.053 11.01-31.717 17.574-50.962 17.574-3.312 0-6.564-.209-9.787-.567 18.141 11.637 39.714 18.439 62.897 18.439 75.459 0 116.724-62.509 116.724-116.724 0-1.79-.03-3.551-.119-5.311 8.026-5.788 14.978-13.009 20.468-21.244z" fill="#00aced"/></svg>