<svg xmlns="http://www.w3.org/2000/svg" viewBox="0 0 2 1.5" width="40" height="30"><clipPath id="a"><path d="M30 15h30v15zm0 0v15h-30zm0 0h-30v-15zm0 0v-15h30z"/></clipPath><path d="M.001-.001v1.502h2.003v-1.502z" fill="#00247d"/><path d="M.143.009l1.714 1.125m0-1.125l-1.714 1.125" fill="#b3b3b3" stroke="#fff" stroke-width=".196" transform="matrix(1.168 0 0 1.335 -.166 -.013)"/><path transform="matrix(.034 0 0 .049 .001 -.001)" clip-path="url(#a)" d="M0 0l60 30m0-30l-60 30" stroke="#cf142b" stroke-width="4"/><path d="M1 .009v1.125m-.857-.563h1.714" fill="#b3b3b3" stroke="#fff" stroke-width=".327" transform="matrix(1.168 0 0 1.335 -.166 -.013)"/><path d="M1 .009v1.125m-.857-.563h1.714" stroke="#cf142b" stroke-width=".196" transform="matrix(1.168 0 0 1.335 -.166 -.013)"/></svg>